<svg width="1200" height="1200" viewBox="0 0 1200 1200" fill="none" xmlns="http://www.w3.org/2000/svg">
  <defs>
    <linearGradient id="t1" x1="105" y1="280" x2="1040" y2="900" gradientUnits="userSpaceOnUse">
      <stop stop-color="#F2D8BB"/>
      <stop offset="1" stop-color="#6D8799"/>
    </linearGradient>
    <linearGradient id="t2" x1="140" y1="170" x2="990" y2="1030" gradientUnits="userSpaceOnUse">
      <stop stop-color="#FFF2E1"/>
      <stop offset="1" stop-color="#8AA2B2"/>
    </linearGradient>
  </defs>
  <path d="M78 452C177 334 336 320 451 420C559 515 683 530 810 452C919 386 1032 410 1122 510" stroke="url(#t1)" stroke-opacity="0.62" stroke-width="7"/>
  <path d="M68 590C168 472 327 458 442 558C550 653 674 668 801 590C910 524 1023 548 1113 648" stroke="url(#t2)" stroke-opacity="0.54" stroke-width="5"/>
  <path d="M119 744C231 634 377 620 484 718C584 812 703 834 833 760C928 706 1015 726 1093 811" stroke="url(#t1)" stroke-opacity="0.44" stroke-width="4"/>
  <circle cx="372" cy="362" r="20" fill="#EED2B3" fill-opacity="0.36"/>
  <circle cx="808" cy="534" r="16" fill="#EED2B3" fill-opacity="0.28"/>
  <circle cx="620" cy="730" r="11" fill="#EED2B3" fill-opacity="0.22"/>
</svg>
